<svg width="33" height="32" viewBox="0 0 33 32" fill="none" xmlns="http://www.w3.org/2000/svg">
<path d="M16.0319 0C11.797 0 7.73177 1.68675 4.73965 4.68625C1.74502 7.68575 0.0605469 11.7582 0.0605469 16C0.0605469 20.2417 1.74502 24.3142 4.73965 27.3137C7.73177 30.3132 11.797 32 16.0319 32C20.2668 32 24.332 30.3132 27.3241 27.3137C30.3187 24.3142 32.0032 20.2417 32.0032 16C32.0032 11.7582 30.3187 7.68575 27.3241 4.68625C24.332 1.68675 20.2668 0 16.0319 0Z" fill="url(#paint0_linear_1046_119)"/>
<path d="M7.29084 15.8309C11.9475 13.7989 15.0519 12.4592 16.6041 11.8119C21.0411 9.96369 21.9619 9.64269 22.5633 9.63194C22.6956 9.62969 22.9901 9.66244 23.1822 9.81819C23.3419 9.94944 23.3869 10.1269 23.4094 10.2514C23.4293 10.3759 23.4568 10.6597 23.4343 10.8812C23.1948 13.4112 22.1541 19.5507 21.6251 22.3844C21.403 23.5835 20.9612 23.9855 20.5345 24.0247C19.6062 24.1102 18.9024 23.4107 18.004 22.8209C16.599 21.8977 15.8055 21.3232 14.4405 20.4224C12.8633 19.3814 13.8864 18.8092 14.7848 17.8742C15.0194 17.6294 19.107 13.9057 19.1844 13.5679C19.1944 13.5257 19.2044 13.3682 19.1096 13.2852C19.0172 13.2019 18.8799 13.2304 18.7801 13.2529C18.6379 13.2849 16.3944 14.7719 12.0422 17.7137C11.4058 18.1522 10.8294 18.3659 10.3103 18.3547C9.74134 18.3424 8.64338 18.0317 7.82735 17.7662C6.82914 17.4404 6.03303 17.2682 6.10291 16.7149C6.13784 16.4269 6.53469 16.1322 7.29084 15.8309Z" fill="white"/>
<defs>
<linearGradient id="paint0_linear_1046_119" x1="16.0319" y1="0" x2="16.0319" y2="32" gradientUnits="userSpaceOnUse">
<stop stop-color="#2AABEE"/>
<stop offset="1" stop-color="#229ED9"/>
</linearGradient>
</defs>
</svg>
