<svg width="32" height="32" viewBox="0 0 32 32" fill="none" xmlns="http://www.w3.org/2000/svg">
<path d="M16 0C7.2 0 0 7.2 0 16C0 24.8 7.2 32 16 32C24.8 32 32 24.8 32 16C32 7.2 24.8 0 16 0Z" fill="#0077FF"/>
<path d="M16.9605 23.36C9.76051 23.36 5.68051 18.48 5.52051 10.24H9.12051C9.20051 16.24 11.9205 18.8 14.0005 19.28V10.24H17.3605V15.44C19.4405 15.2 21.6005 12.88 22.3205 10.24H25.6805C25.1205 13.44 22.7205 15.84 21.0405 16.8C22.7205 17.6 25.4405 19.68 26.4005 23.36H22.6405C21.8405 20.88 19.8405 18.96 17.2005 18.64V23.36H16.9605Z" fill="white"/>
</svg>
