<svg width="120" height="90" viewBox="0 0 120 90" fill="none" xmlns="http://www.w3.org/2000/svg">
<path d="M108 0H12C12 3.1826 10.7357 6.23485 8.48528 8.48528C6.23485 10.7357 3.1826 12 0 12V78C3.1826 78 6.23485 79.2643 8.48528 81.5147C10.7357 83.7652 12 86.8174 12 90H108C108 86.8174 109.264 83.7652 111.515 81.5147C113.765 79.2643 116.817 78 120 78V12C116.817 12 113.765 10.7357 111.515 8.48528C109.264 6.23485 108 3.1826 108 0Z" fill="url(#paint0_linear_806_32)"/>
<path d="M105 36H99V63H105V36Z" fill="#E6E6E6"/>
<path d="M102 76.8C102 76.8 108 69.315 108 66C108 62.685 105.315 60 102 60C98.685 60 96 62.685 96 66C96 69.315 102 76.8 102 76.8Z" fill="#E6E6E6"/>
<path d="M56.703 55.536L13.317 38.892C11.559 38.217 11.559 35.925 13.317 35.25L56.703 18.609C58.812 17.799 61.188 17.799 63.297 18.609L106.68 35.25C108.438 35.925 108.438 38.217 106.68 38.892L63.297 55.533C61.185 56.346 58.815 56.346 56.703 55.536Z" fill="white"/>
<path d="M60 36C41.775 36 33 39.495 33 43.806V68.286C48 69 60 78 60 78C60 78 72 69 87 68.286V43.806C87 39.495 78.225 36 60 36Z" fill="#F2F2F2"/>
<defs>
<linearGradient id="paint0_linear_806_32" x1="26.445" y1="-8.697" x2="95.985" y2="102.585" gradientUnits="userSpaceOnUse">
<stop stop-color="#32BDEF"/>
<stop offset="1" stop-color="#1EA2E4"/>
</linearGradient>
</defs>
</svg>
